<?xml version="1.0" encoding="utf-8"?>
<!-- Generator: Adobe Illustrator 23.0.1, SVG Export Plug-In . SVG Version: 6.00 Build 0)  -->
<svg version="1.1" id="Layer_1" xmlns="http://www.w3.org/2000/svg" xmlns:xlink="http://www.w3.org/1999/xlink" x="0px" y="0px"
	 viewBox="0 0 5160.4 1001.6" style="enable-background:new 0 0 5160.4 1001.6;" xml:space="preserve">
<style type="text/css">
	.st0{fill:none;}
	.st1{fill:#AD0F0A;}
	.st2{fill:#FFFFFF;}
</style>
<g>
	<path class="st0" d="M1691.8,380.7c-39.6,0-75.2,30.2-84.7,72v0.2c-1.9,8.4-2.8,17-2.8,25.6v59.1h0.2v11.2c-0.1,10.5,1,21,3.1,31.3
		c10,40.1,43,66.8,82.6,66.8c60.9,0,99-51.3,99-133.5c0-39.4-8.7-72.8-25.3-96.2C1746.4,393,1722.3,380.7,1691.8,380.7z"/>
	<path class="st0" d="M3956,607.9c0,44.7,36.4,49.6,51.9,49.6c32.2,0,62.5-21.3,72-50.7c1.9-7.9,2.8-16.1,2.8-24.3v-44.4
		C3998.6,540.2,3956,563.5,3956,607.9z"/>
	<path class="st0" d="M2161.5,249.5l75.7,42.1c-32.2,33.9-51.4,75.8-54.8,121.1l-97.6-3.4c-7.1,66.5,11.1,131.9,45,189l96.2-37.8
		c33,48.5,81.4,88,136.9,115.1l-55.6,85.5c71.7,37.5,153.6,58.3,235.6,58.2l-6.8-102.2c58.3,0.8,119-12.1,169.3-41.9l60.5,81
		c52.6-35,90.6-82.7,110.8-136.8l-81.2-42.4c17.3-39.2,21.2-83.1,10.9-124.8l76.3-0.3c-14.4-53.6-42.8-102.5-79.7-144.3l-60.5,26.7
		c-31.5-34.8-71.2-63.5-115.6-84.6l30.5-51.1c-53.2-26-110.5-42.7-169.3-49.4v62.2c-46.8-4.1-93.9-0.3-138.6,13.4l-43.9-59.6
		C2246.8,182.8,2198.3,212.3,2161.5,249.5z M2355.9,329.3c-6.8-45.9,37.3-83.3,98.2-83.3c60.9,0,115.6,37.3,122.3,83.3
		c0.9,6.9,0.8,13.9-0.3,20.7c13.7-4.1,28-6.1,42.4-5.8c66.5,0.9,126.2,43.7,133.4,95.5s-40.7,93-107,92.1c-39.1-0.6-76-16-101.3-39
		c51.1,84.3,117.6,114.7,196.9,98.5l12.1,18.7l-327.3,76.6l-1.4-21.3c90.4-22.1,128.6-75.4,100.2-157.9
		c-16.6,37.5-68.9,73.2-120.6,74.9c-69.8,2.3-132.6-41-140.3-96.5c-7.7-55.6,42.7-102.7,112.5-105.1h10.9
		C2369.9,366.4,2358.7,348.5,2355.9,329.3L2355.9,329.3z"/>
	<path class="st1" d="M329.4,378.4c34.2,0,62.6,5.1,84.7,14.7l12.6,5.7l30.1-141.5l-9.1-3.4c-34.4-12.9-81.4-20.7-125.7-20.7
		c-93.3,0-171.8,28.9-226.6,83.5c-50.7,50.5-78.6,121.9-78.6,200.8c0,82,26.7,151,77.1,199.7s121.4,74.1,206,74.1
		c58.6,0,115.3-9.7,147.7-25.3l7.5-3.5l-22.4-140l-13.4,5.8c-24.7,10.6-53.1,16-86.9,16c-36.4,0-68.9-12-91.6-33.9
		c-24.7-23.6-37.8-57.9-37.8-99c-0.6-39.1,12.1-73.7,35.6-97.5C261.2,390.5,292.5,378.4,329.4,378.4z"/>
	<path class="st1" d="M838.5,233.3c-30.6,0.1-60.7,7.3-88,21.2c-18.2,9-34.7,21.1-48.8,35.6V12.9H519.8v767.6h181.9V465.1
		c0-12.9,1.5-23.8,4.3-30.1l0.2-0.3c4.5-11.7,22.9-49.6,69.2-49.6c24.9,0,42.7,8.6,54.6,26.6c11.4,17.2,17.2,42.7,17.2,75.8v293.6
		h181.9V470.5c0-76.9-18.3-136.9-54.3-178.4C941.6,253.6,894.5,233.3,838.5,233.3z"/>
	<rect x="1134.7" y="245" class="st1" width="181.9" height="535.5"/>
	<path class="st1" d="M1226.8,22.3c-55.7,0-96.2,38.2-96.2,90.9s39.4,90.9,94.1,90.9c28.7,0,53.1-9.2,70.9-26.4
		c17-16.4,26.4-39.4,26.4-64.3v-0.2C1320.9,59.6,1281.6,22.3,1226.8,22.3z"/>
	<path class="st1" d="M1931.7,342.5c-7.6-12.7-16.3-24.6-25.9-35.8c-41.1-47.1-96.9-73.2-157-73.2c-68.2,0-124.6,23.3-164.7,68
		l-5.8-56.5h-160.4l0.6,11.7c2,50,4.1,105.3,4.1,171.6v560.4h181.9V749.5c29.8,27,75.1,42.8,124.2,42.8
		c84.7,0,174.1-46.4,217.5-145.8C1897.3,533,1897.5,429.4,1931.7,342.5z M1689.8,647.2c-39.4,0-72.6-26.7-82.6-66.8
		c-2-10.3-3.1-20.8-3.1-31.3v-11.2h-0.2v-59.1c0-8.6,0.9-17.2,2.8-25.6V453c9.5-41.8,45.1-72,84.7-72c30.5,0,54.6,12.3,71.7,36.5
		c16.4,23.3,25.3,56.6,25.3,96.2C1788.8,595.9,1750.7,647.2,1689.8,647.2z"/>
	<path class="st2" d="M3203.5,445.2c-64.9-22.9-75.4-33.3-75.4-49.4c0-9.1,4.9-29.8,49.6-29.8c43,0,86.9,17.7,105.9,28.1l12.7,6.9
		l33-133.1l-8-4c-39.9-19.8-95.6-31.6-148.9-31.6c-117.3,0-202.6,60.6-217.8,150.6c30.1,47.9,50.7,98.4,61.4,149.4
		c22.3,16.7,51.9,32.2,90.9,45.3c60.6,20.6,66.9,30.9,66.9,49.3c0,8.4,0,30.7-57.1,30.7c-28.9,0-63.9-7.8-92.6-18.3
		c-2.6,46.4-13.9,91.9-33.5,134c37.6,12.3,81.7,19,126.2,19c72.6,0,132.3-17.2,172.8-49.7c39.1-31.5,59.9-75.8,59.9-128.6
		c-0.6-41-12.3-74.1-35.8-101.6C3290.1,484.8,3253.9,462.7,3203.5,445.2z"/>
	<path class="st2" d="M3625.3,102.9l-178.7,49.3v93h-68.3V385h68.3v198.9c0,74.6,15.5,127.1,47.3,160.2
		c29.9,30.1,76.9,47.6,128.6,47.6c41,0,82.9-5.7,106.7-14.4l7.5-2.6l-1.4-142.3l-13.4,2.8c-13,2.6-22.7,4-45,4
		c-33,0-51.9-12.9-51.9-79.2V385.5h114.5V245.3h-114.5L3625.3,102.9z"/>
	<path class="st2" d="M4259.7,656.7L4259.7,656.7l0.2-190.6c0-106.7-41-233.9-235.9-233.9c-111.1,0-185.1,36.5-204.9,47.7l-7.7,4.3
		l35.9,125.7l12.6-8c29.3-18.6,82.7-37.3,135.7-37.3c52.2,0,79.7,17.2,82,51.3c-89.9,1.4-161.6,18-213.2,49.7
		c-58.3,35.9-88,88.9-88,157.8c0,44.5,16.7,86.3,47.1,117.3c33,33.6,77.7,51.4,129.9,51.4c57.4,0,107.4-18.7,142.7-53.1l7.5,41.6
		h167.3l-3.1-13.7C4262.8,744.9,4260.2,707,4259.7,656.7z M4082.9,582.5c0,8.2-0.9,16.3-2.8,24.3c-9.7,29.3-39.9,50.7-72,50.7
		c-15.5,0-51.9-4.9-51.9-49.6c0-44.4,42.7-67.7,126.9-69.7v44.2L4082.9,582.5L4082.9,582.5z"/>
	<path class="st2" d="M4657,232.4c-43.3,0-100.1,21.9-134,81l-4.6-68.5h-158.9l0.8,12c3.1,42.7,4.1,91.3,4.1,168.2v355.5h181.9
		V509.3c-0.1-11.2,1-22.4,3.1-33.5c9.7-45.1,46.7-71.8,98.2-71.8c13.8,0.1,27.6,1.4,41.1,4l12.9,2V237.5l-9.2-1.7
		C4680.8,233.5,4668.9,232.3,4657,232.4z"/>
	<path class="st2" d="M5107.9,512.5c-23.8-27.9-59.9-49.7-110.4-67.2c-64.9-22.9-75.4-33.3-75.4-49.4c0-9.1,4.9-29.8,49.6-29.8
		c43,0,86.9,17.7,105.9,28.1l12.7,6.9l33-133.1l-8-4c-39.9-19.8-95.6-31.6-148.9-31.6c-129.7,0-220.3,74.1-220.3,180
		c-0.8,51.4,25.5,122,154.6,165c60.6,20.6,66.9,30.9,66.9,49.3c0,8.4,0,30.7-57.1,30.7c-44.4,0-103-18.7-131.7-36.1l-12.9-7.8
		L4732,750.3l7.7,4.1c45,24.1,107.3,37.9,171.1,37.9c72.6,0,132.3-17.2,172.8-49.7c39.1-31.5,59.9-75.8,59.9-128.6
		C5143.1,573.2,5131.6,539.9,5107.9,512.5z"/>
	<path class="st1" d="M2044.5,588.5c90.7,209.1,358.6,338.5,597.7,289.5c239.1-49,359.8-258.2,268.9-466.9
		c-90.7-209.1-358.6-338.5-597.7-289.5C2074.1,170.9,1953.6,379.8,2044.5,588.5z M2488.1,211.4v-62.2
		c58.8,6.7,116.1,23.4,169.3,49.4l-30.5,51.1c44.4,21,84.3,49.7,115.6,84.6l60.3-26.6c36.8,41.8,65.2,90.7,79.7,144.3l-76.3,0.3
		c10.3,41.7,6.4,85.5-10.9,124.8l81.2,42.4c-20.3,54-58.2,101.8-110.8,136.8l-60.5-81c-50.3,29.8-111,42.7-169.3,41.9l6.8,102.2
		c-82,0.2-163.9-20.7-235.6-58.2l55.6-85.5c-55.6-27.2-104.1-66.6-136.9-115.1l-96.2,37.8c-33.9-57.1-52-122.6-45-189l97.6,3.4
		c3.4-45.3,22.7-87.2,54.8-121.1l-75.7-42.1c36.8-37.3,85.3-66.6,143.8-84.4l43.9,59.6C2394.2,210.9,2441.3,207.2,2488.1,211.4z"/>
	<path class="st2" d="M2263.2,485.7c7.7,55.6,70.6,98.9,140.3,96.5c51.9-1.7,104.1-37.5,120.6-74.9c28.2,82.6-10,135.8-100.2,157.9
		l1.4,21.3l327.3-76.6l-12.1-18.7c-79.4,16.1-145.8-14.4-196.8-98.5c25.3,23,62.2,38.4,101.3,39c66.5,0.9,114.2-40.2,107-92.1
		c-7.4-51.6-66.9-94.6-133.4-95.5c-14.3-0.3-28.6,1.7-42.4,5.8c1.2-6.8,1.3-13.8,0.3-20.7c-6.8-46-61.6-83.3-122.3-83.3
		c-60.8,0-105,37.5-98.2,83.3c2.8,19.3,14,37.3,30.7,51.3h-10.9C2305.9,383,2255.6,430,2263.2,485.7z"/>
	<path class="st2" d="M2985.7,504.4c-6.2-28.8-15.4-56.9-27.5-83.8c-1.8-4.1-4-8.3-6-12.3c-31.6-62-79.5-120.3-143.5-169.8
		c253.4,223.9,220.6,607.5-144.9,689.2c-255.4,57.1-547.7-83.3-652.8-313.1c-150.4-328.9,151.5-567.3,463.1-527.7
		c-37-6.1-74.5-8.3-111.9-6.6c-197.5,13-371.5,128.8-411.8,300.5c-14.7,62.6-11.8,132.6,14,208.1c5.4,15.5,11.8,31.5,19,47.6
		c110.8,240.8,415.8,392,682.9,322.5c139.4-36.4,233.9-110.5,284.3-201.5c22.6-40.6,36.8-85.2,41.8-131.4
		C2996.8,585.5,2994.6,544.4,2985.7,504.4z"/>
</g>
</svg>
