<svg xmlns="http://www.w3.org/2000/svg" width="637.332" height="637.332" viewBox="0 0 637.332 637.332"><g transform="translate(-1385.664 1079.997)"><g transform="translate(371 172)"><g transform="translate(1651.996 -933.331)"><path d="M0,0C0,175.994-142.672,318.666-318.666,318.666S-637.332,175.994-637.332,0-494.66-318.666-318.666-318.666,0-175.994,0,0" fill="#211e1f"/></g><g transform="translate(1475.184 -1073.702)"><path d="M0,0-141.793,143.488l-69.1-70.746a53.484,53.484,0,0,1,0-75.545,53.087,53.087,0,0,1,37.772-15.644h.021a53.076,53.076,0,0,1,22.364,4.923c.3.137.584.3.881.447,1.285.625,2.548,1.292,3.775,2.013.405.239.8.491,1.2.739q1.738,1.086,3.385,2.292c.3.223.611.44.911.669a54.388,54.388,0,0,1,7.82,7.316,53.771,53.771,0,0,1,7.1,10.284h30.349A80.487,80.487,0,0,0-99.468,0h0a.134.134,0,0,0-.009-.02q-1.162-2.414-2.479-4.735c-.112-.2-.225-.4-.34-.6-.833-1.448-1.7-2.869-2.619-4.259-.193-.295-.4-.581-.6-.873-.889-1.309-1.795-2.605-2.756-3.859-.281-.369-.588-.719-.875-1.084-1.149-1.444-2.332-2.857-3.572-4.221-1.059-1.167-2.132-2.321-3.255-3.427-.429-.421-.887-.811-1.325-1.223-1.117-1.051-2.249-2.084-3.423-3.072-.42-.351-.853-.683-1.279-1.025q-1.88-1.52-3.845-2.933c-.175-.125-.337-.268-.513-.392l-.025.016A80.942,80.942,0,0,0-173.1-46.528h-.021A80.956,80.956,0,0,0-230.75-22.657a81.14,81.14,0,0,0-23.595,52.368L-283.7,0h-15.888V262.638h28.08V52.287L-152.365,172.85l53.636,54.915a53.458,53.458,0,0,1,0,75.536A53.039,53.039,0,0,1-136.5,318.946h-.067A53.685,53.685,0,0,1-190.2,265.323h-28.08a81.8,81.8,0,0,0,81.7,81.7h.079a80.984,80.984,0,0,0,57.633-23.863,81.565,81.565,0,0,0,.116-115.137l-43.42-44.452L-12.193,52.287V262.638H15.888V0Z" fill="#fff"/></g></g></g></svg>