<?xml version="1.0" encoding="utf-8"?>
<!-- Generator: Adobe Illustrator 19.0.0, SVG Export Plug-In . SVG Version: 6.00 Build 0)  -->
<svg version="1.1" xmlns="http://www.w3.org/2000/svg" xmlns:xlink="http://www.w3.org/1999/xlink" x="0px" y="0px"
	 viewBox="0 0 612 666" style="enable-background:new 0 0 612 666;" xml:space="preserve">
<style type="text/css">
	.st0{fill:#FFFFFF;stroke:#000000;stroke-miterlimit:10;}
	.st1{fill:none;}
	.st2{fill:#333333;stroke:#333333;stroke-width:60;stroke-miterlimit:10;}
	.st3{fill:none;stroke:#333333;stroke-width:60;stroke-miterlimit:10;}
	.st4{fill:none;stroke:#333333;stroke-width:80;stroke-miterlimit:10;}
	.st5{fill:none;stroke:#333333;stroke-width:100;stroke-miterlimit:10;}
</style>
<g id="Layer_2">
	<rect id="XMLID_16_" class="st0" width="612" height="666"/>
</g>
<g id="Layer_1">
	<line id="XMLID_1_" class="st1" x1="558" y1="45" x2="628.7" y2="-25.7"/>
	<line id="XMLID_2_" class="st2" x1="558" y1="46" x2="54" y2="46"/>
	<line id="XMLID_3_" class="st3" x1="54" y1="45" x2="54" y2="46"/>
	<line id="XMLID_4_" class="st4" x1="54" y1="16" x2="54" y2="363"/>
	<line id="XMLID_5_" class="st4" x1="558" y1="16" x2="558" y2="261"/>
	<line id="XMLID_6_" class="st3" x1="24" y1="333" x2="195" y2="333"/>
	<line id="XMLID_12_" class="st1" x1="53.7" y1="621.3" x2="-17" y2="692"/>
	<line id="XMLID_11_" class="st2" x1="54" y1="620" x2="558" y2="620"/>
	<line id="XMLID_10_" class="st3" x1="558" y1="621" x2="558" y2="620"/>
	<line id="XMLID_9_" class="st4" x1="558" y1="650" x2="558" y2="303"/>
	<line id="XMLID_8_" class="st4" x1="54" y1="650" x2="54" y2="405"/>
	<line id="XMLID_7_" class="st3" x1="588" y1="333" x2="417" y2="333"/>
	<line id="XMLID_13_" class="st5" x1="221" y1="189" x2="221" y2="515"/>
	<line id="XMLID_14_" class="st5" x1="390" y1="189" x2="390" y2="515"/>
	<line id="XMLID_15_" class="st5" x1="171" y1="189" x2="440" y2="189"/>
</g>
</svg>
